unassisted
version=1
nRows=4
nColumns=195
inDegrees=yes
endheader
time	platform_rx	platform_ry	platform_rz	platform_ty	pelvis_tilt	pelvis_list	pelvis_rotation	pelvis_tx	pelvis_ty	pelvis_tz	hip_flexion_r	hip_adduction_r	hip_rotation_r	knee_angle_r	ankle_angle_r	subtalar_angle_r	mtp_angle_r	hip_flexion_l	hip_adduction_l	hip_rotation_l	knee_angle_l	ankle_angle_l	subtalar_angle_l	mtp_angle_l	lumbar_extension	lumbar_bending	lumbar_rotation	platform_rx_u	platform_ry_u	platform_rz_u	platform_ty_u	pelvis_tilt_u	pelvis_list_u	pelvis_rotation_u	pelvis_tx_u	pelvis_ty_u	pelvis_tz_u	hip_flexion_r_u	hip_adduction_r_u	hip_rotation_r_u	knee_angle_r_u	ankle_angle_r_u	subtalar_angle_r_u	mtp_angle_r_u	hip_flexion_l_u	hip_adduction_l_u	hip_rotation_l_u	knee_angle_l_u	ankle_angle_l_u	subtalar_angle_l_u	mtp_angle_l_u	lumbar_extension_u	lumbar_bending_u	lumbar_rotation_u	glut_med1_r.activation	glut_med1_r.fiber_length	glut_med2_r.activation	glut_med2_r.fiber_length	glut_med3_r.activation	glut_med3_r.fiber_length	bifemlh_r.activation	bifemlh_r.fiber_length	bifemsh_r.activation	bifemsh_r.fiber_length	sar_r.activation	sar_r.fiber_length	add_mag2_r.activation	add_mag2_r.fiber_length	tfl_r.activation	tfl_r.fiber_length	pect_r.activation	pect_r.fiber_length	grac_r.activation	grac_r.fiber_length	glut_max1_r.activation	glut_max1_r.fiber_length	glut_max2_r.activation	glut_max2_r.fiber_length	glut_max3_r.activation	glut_max3_r.fiber_length	iliacus_r.activation	iliacus_r.fiber_length	psoas_r.activation	psoas_r.fiber_length	quad_fem_r.activation	quad_fem_r.fiber_length	gem_r.activation	gem_r.fiber_length	peri_r.activation	peri_r.fiber_length	rect_fem_r.activation	rect_fem_r.fiber_length	vas_int_r.activation	vas_int_r.fiber_length	med_gas_r.activation	med_gas_r.fiber_length	lat_gas_r.activation	lat_gas_r.fiber_length	soleus_r.activation	soleus_r.fiber_length	tib_post_r.activation	tib_post_r.fiber_length	flex_dig_r.activation	flex_dig_r.fiber_length	flex_hal_r.activation	flex_hal_r.fiber_length	tib_ant_r.activation	tib_ant_r.fiber_length	per_brev_r.activation	per_brev_r.fiber_length	per_long_r.activation	per_long_r.fiber_length	per_tert_r.activation	per_tert_r.fiber_length	ext_dig_r.activation	ext_dig_r.fiber_length	ext_hal_r.activation	ext_hal_r.fiber_length	glut_med1_l.activation	glut_med1_l.fiber_length	glut_med2_l.activation	glut_med2_l.fiber_length	glut_med3_l.activation	glut_med3_l.fiber_length	bifemlh_l.activation	bifemlh_l.fiber_length	bifemsh_l.activation	bifemsh_l.fiber_length	sar_l.activation	sar_l.fiber_length	add_mag2_l.activation	add_mag2_l.fiber_length	tfl_l.activation	tfl_l.fiber_length	pect_l.activation	pect_l.fiber_length	grac_l.activation	grac_l.fiber_length	glut_max1_l.activation	glut_max1_l.fiber_length	glut_max2_l.activation	glut_max2_l.fiber_length	glut_max3_l.activation	glut_max3_l.fiber_length	iliacus_l.activation	iliacus_l.fiber_length	psoas_l.activation	psoas_l.fiber_length	quad_fem_l.activation	quad_fem_l.fiber_length	gem_l.activation	gem_l.fiber_length	peri_l.activation	peri_l.fiber_length	rect_fem_l.activation	rect_fem_l.fiber_length	vas_int_l.activation	vas_int_l.fiber_length	med_gas_l.activation	med_gas_l.fiber_length	lat_gas_l.activation	lat_gas_l.fiber_length	soleus_l.activation	soleus_l.fiber_length	tib_post_l.activation	tib_post_l.fiber_length	flex_dig_l.activation	flex_dig_l.fiber_length	flex_hal_l.activation	flex_hal_l.fiber_length	tib_ant_l.activation	tib_ant_l.fiber_length	per_brev_l.activation	per_brev_l.fiber_length	per_long_l.activation	per_long_l.fiber_length	per_tert_l.activation	per_tert_l.fiber_length	ext_dig_l.activation	ext_dig_l.fiber_length	ext_hal_l.activation	ext_hal_l.fiber_length	ercspn_r.activation	ercspn_r.fiber_length	ercspn_l.activation	ercspn_l.fiber_length	intobl_r.activation	intobl_r.fiber_length	intobl_l.activation	intobl_l.fiber_length	extobl_r.activation	extobl_r.fiber_length	extobl_l.activation	extobl_l.fiber_length
      0.34418861	     -0.00042092	     -0.00000000	     -0.00000000	     -0.50000000	     -3.68345772	    -14.12984321	     -8.00395352	      0.03975639	      0.41957494	      0.00140894	      7.37278363	     13.45761114	      5.98080036	    -20.91352663	      9.86656263	     15.79405557	      3.17600000	    -19.99999998	     10.00000028	      4.99999985	   -119.99999986	     11.49999977	     -0.03000064	      0.00000000	    -15.04938545	     15.01939917	     12.59148357	     -0.00000000	     -0.00000000	     -0.00000000	      0.00000000	    208.02013995	   -408.80719215	   -225.82734680	     -0.58251019	     -0.37260626	     -0.04296092	   -170.92511903	    378.40339622	     21.12761499	   -169.95008154	     84.85341834	    254.30915230	     -0.00000000	     -0.00000000	     -0.00000000	     -0.00000000	      0.00000000	      0.00000000	     -0.00000000	      0.00000000	   -518.99236154	    350.30868127	    399.97008660	      0.40161689	      0.05160711	      0.29711363	      0.08996892	      0.42219937	      0.07222419	      0.01042677	      0.08841046	      0.01057282	      0.16226558	      0.04560402	      0.46649949	      0.01902431	      0.06617645	      0.34922954	      0.10864411	      0.01246725	      0.05895823	      0.01042677	      0.29458871	      0.15921249	      0.08812855	      0.10176792	      0.09343483	      0.02952152	      0.09355992	      0.09015142	      0.10019305	      0.09137923	      0.09398731	      0.05565928	      0.04184977	      0.37294589	      0.02616271	      0.60545571	      0.02657042	      0.24674029	      0.10855607	      0.16349978	      0.08087742	      0.40612462	      0.08505132	      0.47712667	      0.05568695	      0.47760605	      0.07976097	      0.41880010	      0.02581940	      0.40161065	      0.02283426	      0.38672834	      0.03082894	      0.01049737	      0.08791325	      0.38586880	      0.05421415	      0.39953965	      0.05109447	      0.02711846	      0.07974699	      0.01060992	      0.09546210	      0.01047492	      0.10176578	      0.01042677	      0.04646043	      0.01042677	      0.07923757	      0.01042677	      0.06066313	      0.01042677	      0.02205852	      0.01042677	      0.12237547	      0.01042677	      0.45555087	      0.01042677	      0.05827725	      0.01042677	      0.13391239	      0.01042677	      0.07307066	      0.01042677	      0.24300364	      0.01042677	      0.06637168	      0.01042677	      0.06553510	      0.01042677	      0.05769114	      0.01042677	      0.11895348	      0.01042677	      0.11275518	      0.01042677	      0.04385292	      0.01042677	      0.02477477	      0.01042677	      0.02330680	      0.01042677	      0.18252094	      0.01042677	      0.13945742	      0.01042677	      0.06769279	      0.01042677	      0.04184382	      0.01042677	      0.08591801	      0.01042677	      0.03560404	      0.01042677	      0.03413713	      0.01042677	      0.04251625	      0.01042677	      0.07208558	      0.01042677	      0.05028356	      0.01042677	      0.05151979	      0.01042677	      0.07462975	      0.01042677	      0.08883211	      0.01042677	      0.09636894	      0.01042677	      0.11619263	      0.35124588	      0.13929100	      0.01042677	      0.08415982	      0.16648172	      0.10158291	      0.01042677	      0.11305423	      0.17323466	      0.13668257
      0.34428960	     -0.00042092	     -0.00000000	     -0.00000000	     -0.50000000	     -3.66243459	    -14.17112922	     -8.02675199	      0.03969750	      0.41953749	      0.00140458	      7.35550979	     13.49584118	      5.98299173	    -20.93070493	      9.87501798	     15.81953569	      3.17600000	    -19.99999998	     10.00000028	      4.99999985	   -119.99999986	     11.49999977	     -0.03000064	      0.00000000	    -15.10184806	     15.05474021	     12.63189223	     -0.00000000	     -0.00000000	     -0.00000000	      0.00000000	    208.30587714	   -408.78957663	   -225.65599697	     -0.58370409	     -0.36900127	     -0.04332455	   -171.15292956	    378.67591970	     22.27032162	   -170.23587542	     82.58944020	    250.25755899	     -0.00000000	     -0.00000000	     -0.00000000	     -0.00000000	      0.00000000	      0.00000000	     -0.00000000	      0.00000000	   -519.93691047	    349.55808004	    400.25201924	      0.40194486	      0.05163376	      0.29692371	      0.08999103	      0.42157575	      0.07223997	      0.01042621	      0.08838208	      0.01057208	      0.16225737	      0.04559182	      0.46652256	      0.01901228	      0.06614416	      0.34930686	      0.10868330	      0.01246402	      0.05894114	      0.01042621	      0.29454995	      0.15897470	      0.08813470	      0.10161686	      0.09342991	      0.02949471	      0.09352034	      0.09042487	      0.10020373	      0.09164256	      0.09399526	      0.05559207	      0.04183386	      0.37197702	      0.02615777	      0.60441488	      0.02658352	      0.24671823	      0.10858797	      0.16339504	      0.08089136	      0.40501765	      0.08506575	      0.47569632	      0.05570446	      0.47633199	      0.07977515	      0.41763818	      0.02582068	      0.40052296	      0.02283405	      0.38570311	      0.03083514	      0.01049673	      0.08788773	      0.38540139	      0.05423018	      0.39903548	      0.05111335	      0.02727968	      0.07974640	      0.01060913	      0.09543553	      0.01047431	      0.10173688	      0.01042621	      0.04646044	      0.01042621	      0.07923758	      0.01042621	      0.06066314	      0.01042621	      0.02205854	      0.01042621	      0.12237548	      0.01042621	      0.45555088	      0.01042621	      0.05827727	      0.01042621	      0.13391240	      0.01042621	      0.07307067	      0.01042621	      0.24300365	      0.01042621	      0.06637169	      0.01042621	      0.06553512	      0.01042621	      0.05769115	      0.01042621	      0.11895348	      0.01042621	      0.11275519	      0.01042621	      0.04385292	      0.01042621	      0.02477477	      0.01042621	      0.02330682	      0.01042621	      0.18252094	      0.01042621	      0.13945742	      0.01042621	      0.06769284	      0.01042621	      0.04184389	      0.01042621	      0.08591803	      0.01042621	      0.03560406	      0.01042621	      0.03413724	      0.01042621	      0.04251637	      0.01042621	      0.07208561	      0.01042621	      0.05028358	      0.01042621	      0.05151984	      0.01042621	      0.07462977	      0.01042621	      0.08883218	      0.01042621	      0.09636899	      0.01042621	      0.11618559	      0.35135365	      0.13934256	      0.01042621	      0.08413378	      0.16618588	      0.10158375	      0.01042621	      0.11302298	      0.17292189	      0.13668559
      0.34437797	     -0.00042092	     -0.00000000	     -0.00000000	     -0.50000000	     -3.64401623	    -14.20725199	     -8.04668586	      0.03964588	      0.41950502	      0.00140074	      7.34037672	     13.52931422	      5.98500403	    -20.94575913	      9.88222879	     15.84149483	      3.17600000	    -19.99999998	     10.00000028	      4.99999985	   -119.99999986	     11.49999977	     -0.03000064	      0.00000000	    -15.14782970	     15.08560051	     12.66727211	     -0.00000000	     -0.00000000	     -0.00000000	      0.00000000	    208.55461142	   -408.77278096	   -225.50478101	     -0.58474560	     -0.36585981	     -0.04364292	   -171.35199611	    378.91570341	     23.27461757	   -170.48392213	     80.61262938	    246.74521021	     -0.00000000	     -0.00000000	     -0.00000000	     -0.00000000	      0.00000000	      0.00000000	     -0.00000000	      0.00000000	   -520.75981406	    348.89924943	    400.49639393	      0.40222677	      0.05165707	      0.29675818	      0.09001039	      0.42103328	      0.07225379	      0.01042573	      0.08835725	      0.01057142	      0.16225018	      0.04558114	      0.46654273	      0.01900176	      0.06611590	      0.34937337	      0.10871760	      0.01246120	      0.05892620	      0.01042573	      0.29451605	      0.15876735	      0.08814008	      0.10148492	      0.09342556	      0.02947129	      0.09348572	      0.09066203	      0.10021310	      0.09187117	      0.09400235	      0.05553336	      0.04181994	      0.37113249	      0.02615342	      0.60351175	      0.02659499	      0.24669935	      0.10861591	      0.16330384	      0.08090357	      0.40405296	      0.08507826	      0.47445045	      0.05571963	      0.47521785	      0.07978745	      0.41662570	      0.02582180	      0.39957504	      0.02283386	      0.38480953	      0.03084054	      0.01049616	      0.08786539	      0.38498576	      0.05424408	      0.39858728	      0.05112978	      0.02741760	      0.07974590	      0.01060843	      0.09541227	      0.01047377	      0.10171158	      0.01042573	      0.04646045	      0.01042573	      0.07923759	      0.01042573	      0.06066314	      0.01042573	      0.02205856	      0.01042573	      0.12237548	      0.01042573	      0.45555089	      0.01042573	      0.05827728	      0.01042573	      0.13391240	      0.01042573	      0.07307067	      0.01042573	      0.24300367	      0.01042573	      0.06637170	      0.01042573	      0.06553513	      0.01042573	      0.05769116	      0.01042573	      0.11895349	      0.01042573	      0.11275520	      0.01042573	      0.04385293	      0.01042573	      0.02477478	      0.01042573	      0.02330685	      0.01042573	      0.18252094	      0.01042573	      0.13945742	      0.01042573	      0.06769289	      0.01042573	      0.04184396	      0.01042573	      0.08591805	      0.01042573	      0.03560408	      0.01042573	      0.03413733	      0.01042573	      0.04251647	      0.01042573	      0.07208564	      0.01042573	      0.05028361	      0.01042573	      0.05151988	      0.01042573	      0.07462978	      0.01042573	      0.08883224	      0.01042573	      0.09636904	      0.01042573	      0.11617947	      0.35144544	      0.13938766	      0.01042573	      0.08411100	      0.16592763	      0.10158442	      0.01042573	      0.11299565	      0.17264888	      0.13668815
      0.34446634	     -0.00042092	     -0.00000000	     -0.00000000	     -0.50000000	     -3.62557594	    -14.24337322	     -8.06660631	      0.03959416	      0.41947283	      0.00139687	      7.32522608	     13.56280851	      5.98710535	    -20.96083521	      9.88926497	     15.86314180	      3.17600000	    -19.99999998	     10.00000028	      4.99999985	   -119.99999986	     11.49999977	     -0.03000064	      0.00000000	    -15.19388391	     15.11640250	     12.70267349	     -0.00000000	     -0.00000000	     -0.00000000	      0.00000000	    208.80214786	   -408.75467381	   -225.35235044	     -0.58578416	     -0.36273042	     -0.04396141	   -171.55078835	    379.15693116	     24.28516647	   -170.73094717	     78.63670306	    243.18240530	     -0.00000000	     -0.00000000	     -0.00000000	     -0.00000000	      0.00000000	      0.00000000	     -0.00000000	      0.00000000	   -521.57936789	    348.23846695	    400.73857814	      0.40250399	      0.05168038	      0.29659327	      0.09002976	      0.42049377	      0.07226765	      0.01042524	      0.08833241	      0.01057077	      0.16224297	      0.04557048	      0.46656290	      0.01899126	      0.06608765	      0.34943882	      0.10875191	      0.01245838	      0.05891128	      0.01042524	      0.29448215	      0.15856067	      0.08814547	      0.10135322	      0.09342118	      0.02944789	      0.09345109	      0.09089724	      0.10022250	      0.09209813	      0.09400957	      0.05547472	      0.04180603	      0.37029094	      0.02614905	      0.60261566	      0.02660645	      0.24668085	      0.10864386	      0.16321306	      0.08091580	      0.40309189	      0.08509064	      0.47320983	      0.05573467	      0.47410432	      0.07979965	      0.41561709	      0.02582293	      0.39863064	      0.02283368	      0.38391919	      0.03084592	      0.01049559	      0.08784306	      0.38456395	      0.05425787	      0.39813255	      0.05114613	      0.02755268	      0.07974542	      0.01060774	      0.09538902	      0.01047323	      0.10168629	      0.01042524	      0.04646046	      0.01042524	      0.07923759	      0.01042524	      0.06066315	      0.01042524	      0.02205858	      0.01042524	      0.12237549	      0.01042524	      0.45555090	      0.01042524	      0.05827729	      0.01042524	      0.13391240	      0.01042524	      0.07307067	      0.01042524	      0.24300368	      0.01042524	      0.06637171	      0.01042524	      0.06553514	      0.01042524	      0.05769117	      0.01042524	      0.11895349	      0.01042524	      0.11275521	      0.01042524	      0.04385293	      0.01042524	      0.02477478	      0.01042524	      0.02330687	      0.01042524	      0.18252094	      0.01042524	      0.13945742	      0.01042524	      0.06769294	      0.01042524	      0.04184402	      0.01042524	      0.08591806	      0.01042524	      0.03560410	      0.01042524	      0.03413743	      0.01042524	      0.04251658	      0.01042524	      0.07208567	      0.01042524	      0.05028363	      0.01042524	      0.05151993	      0.01042524	      0.07462979	      0.01042524	      0.08883230	      0.01042524	      0.09636909	      0.01042524	      0.11617340	      0.35153489	      0.13943273	      0.01042524	      0.08408821	      0.16566994	      0.10158504	      0.01042524	      0.11296831	      0.17237646	      0.13669064
